<svg width="173" height="24" viewBox="0 0 173 24" fill="none" xmlns="http://www.w3.org/2000/svg">
<path d="M0.392 23L10.184 0.599998H17.608L27.4 23H19.592L12.36 4.184H15.304L8.072 23H0.392ZM6.216 19.096L8.136 13.656H18.44L20.36 19.096H6.216ZM39.5173 8.92H49.5013V14.36H39.5173V8.92ZM40.0293 17.304H51.2293V23H32.6053V0.599998H50.8133V6.296H40.0293V17.304ZM69.7525 23.512C67.9392 23.512 66.2645 23.2347 64.7285 22.68C63.2138 22.104 61.8912 21.2933 60.7605 20.248C59.6512 19.2027 58.7872 17.9653 58.1685 16.536C57.5498 15.1067 57.2405 13.528 57.2405 11.8C57.2405 10.072 57.5498 8.49333 58.1685 7.064C58.7872 5.63467 59.6618 4.39733 60.7925 3.352C61.9232 2.30667 63.2565 1.50667 64.7925 0.952C66.3498 0.375999 68.0565 0.0879993 69.9125 0.0879993C72.1312 0.0879993 74.1045 0.461332 75.8325 1.208C77.5818 1.95467 79.0218 3.02133 80.1525 4.408L75.3205 8.664C74.6165 7.85333 73.8485 7.24533 73.0165 6.84C72.2058 6.41333 71.2992 6.2 70.2965 6.2C69.4645 6.2 68.7072 6.328 68.0245 6.584C67.3632 6.84 66.7978 7.21333 66.3285 7.704C65.8592 8.19467 65.4965 8.78133 65.2405 9.464C64.9845 10.1467 64.8565 10.9253 64.8565 11.8C64.8565 12.632 64.9845 13.4 65.2405 14.104C65.4965 14.7867 65.8592 15.3733 66.3285 15.864C66.7978 16.3547 67.3525 16.7387 67.9925 17.016C68.6538 17.272 69.3898 17.4 70.2005 17.4C71.0538 17.4 71.8858 17.2613 72.6965 16.984C73.5072 16.6853 74.3712 16.184 75.2885 15.48L79.5125 20.664C78.1472 21.5813 76.5898 22.2853 74.8405 22.776C73.0912 23.2667 71.3952 23.512 69.7525 23.512ZM72.9525 19.704V11.192H79.5125V20.664L72.9525 19.704ZM98.4743 23.512C96.6609 23.512 94.9756 23.224 93.4183 22.648C91.8823 22.072 90.5489 21.2613 89.4183 20.216C88.2876 19.1493 87.4023 17.9013 86.7623 16.472C86.1436 15.0427 85.8343 13.4853 85.8343 11.8C85.8343 10.0933 86.1436 8.536 86.7623 7.128C87.4023 5.69867 88.2876 4.46133 89.4183 3.416C90.5489 2.34933 91.8823 1.528 93.4183 0.952C94.9756 0.375999 96.6609 0.0879993 98.4743 0.0879993C100.309 0.0879993 101.994 0.375999 103.53 0.952C105.066 1.528 106.4 2.34933 107.53 3.416C108.661 4.46133 109.536 5.69867 110.154 7.128C110.794 8.536 111.114 10.0933 111.114 11.8C111.114 13.4853 110.794 15.0427 110.154 16.472C109.536 17.9013 108.661 19.1493 107.53 20.216C106.4 21.2613 105.066 22.072 103.53 22.648C101.994 23.224 100.309 23.512 98.4743 23.512ZM98.4743 17.4C99.1783 17.4 99.8289 17.272 100.426 17.016C101.045 16.76 101.578 16.3973 102.026 15.928C102.496 15.4373 102.858 14.8507 103.114 14.168C103.37 13.464 103.498 12.6747 103.498 11.8C103.498 10.9253 103.37 10.1467 103.114 9.464C102.858 8.76 102.496 8.17333 102.026 7.704C101.578 7.21333 101.045 6.84 100.426 6.584C99.8289 6.328 99.1783 6.2 98.4743 6.2C97.7703 6.2 97.1089 6.328 96.4903 6.584C95.8929 6.84 95.3596 7.21333 94.8903 7.704C94.4423 8.17333 94.0903 8.76 93.8343 9.464C93.5783 10.1467 93.4503 10.9253 93.4503 11.8C93.4503 12.6747 93.5783 13.464 93.8343 14.168C94.0903 14.8507 94.4423 15.4373 94.8903 15.928C95.3596 16.3973 95.8929 16.76 96.4903 17.016C97.1089 17.272 97.7703 17.4 98.4743 17.4Z" fill="white"/>
<path d="M117.855 23V0.599998H124.063L135.455 14.232H132.575V0.599998H139.935V23H133.727L122.335 9.368H125.215V23H117.855ZM145.142 23L154.934 0.599998H162.358L172.15 23H164.342L157.11 4.184H160.054L152.822 23H145.142ZM150.966 19.096L152.886 13.656H163.19L165.11 19.096H150.966Z" fill="#FFC600"/>
</svg>
