<svg width="152" height="408" viewBox="0 0 152 408" fill="none" xmlns="http://www.w3.org/2000/svg">
<circle cx="4" cy="4" r="4" fill="#FFC600" fill-opacity="0.4"/>
<circle cx="4" cy="24" r="4" fill="#FFC600" fill-opacity="0.4"/>
<circle cx="4" cy="44" r="4" fill="#FFC600" fill-opacity="0.4"/>
<circle cx="4" cy="64" r="4" fill="#FFC600" fill-opacity="0.4"/>
<circle cx="4" cy="84" r="4" fill="#FFC600" fill-opacity="0.4"/>
<circle cx="4" cy="104" r="4" fill="#FFC600" fill-opacity="0.4"/>
<circle cx="4" cy="124" r="4" fill="#FFC600" fill-opacity="0.4"/>
<circle cx="4" cy="144" r="4" fill="#FFC600" fill-opacity="0.4"/>
<circle cx="4" cy="164" r="4" fill="#FFC600" fill-opacity="0.4"/>
<circle cx="4" cy="184" r="4" fill="#FFC600" fill-opacity="0.4"/>
<circle cx="4" cy="204" r="4" fill="#FFC600" fill-opacity="0.4"/>
<circle cx="4" cy="224" r="4" fill="#FFC600" fill-opacity="0.4"/>
<circle cx="4" cy="244" r="4" fill="#FFC600" fill-opacity="0.4"/>
<circle cx="4" cy="264" r="4" fill="#FFC600" fill-opacity="0.4"/>
<circle cx="4" cy="284" r="4" fill="#FFC600" fill-opacity="0.4"/>
<circle cx="4" cy="304" r="4" fill="#FFC600" fill-opacity="0.4"/>
<circle cx="4" cy="324" r="4" fill="#FFC600" fill-opacity="0.4"/>
<circle cx="4" cy="344" r="4" fill="#FFC600" fill-opacity="0.4"/>
<circle cx="4" cy="364" r="4" fill="#FFC600" fill-opacity="0.4"/>
<circle cx="4" cy="384" r="4" fill="#FFC600" fill-opacity="0.4"/>
<circle cx="20" cy="4" r="4" fill="#FFC600" fill-opacity="0.4"/>
<circle cx="20" cy="24" r="4" fill="#FFC600" fill-opacity="0.4"/>
<circle cx="20" cy="44" r="4" fill="#FFC600" fill-opacity="0.4"/>
<circle cx="20" cy="64" r="4" fill="#FFC600" fill-opacity="0.4"/>
<circle cx="20" cy="84" r="4" fill="#FFC600" fill-opacity="0.4"/>
<circle cx="20" cy="104" r="4" fill="#FFC600" fill-opacity="0.4"/>
<circle cx="20" cy="124" r="4" fill="#FFC600" fill-opacity="0.4"/>
<circle cx="20" cy="144" r="4" fill="#FFC600" fill-opacity="0.4"/>
<circle cx="20" cy="164" r="4" fill="#FFC600" fill-opacity="0.4"/>
<circle cx="20" cy="184" r="4" fill="#FFC600" fill-opacity="0.4"/>
<circle cx="20" cy="204" r="4" fill="#FFC600" fill-opacity="0.4"/>
<circle cx="20" cy="224" r="4" fill="#FFC600" fill-opacity="0.4"/>
<circle cx="20" cy="244" r="4" fill="#FFC600" fill-opacity="0.4"/>
<circle cx="20" cy="264" r="4" fill="#FFC600" fill-opacity="0.4"/>
<circle cx="20" cy="284" r="4" fill="#FFC600" fill-opacity="0.4"/>
<circle cx="20" cy="304" r="4" fill="#FFC600" fill-opacity="0.4"/>
<circle cx="20" cy="324" r="4" fill="#FFC600" fill-opacity="0.4"/>
<circle cx="20" cy="344" r="4" fill="#FFC600" fill-opacity="0.4"/>
<circle cx="20" cy="364" r="4" fill="#FFC600" fill-opacity="0.4"/>
<circle cx="20" cy="384" r="4" fill="#FFC600" fill-opacity="0.4"/>
<circle cx="36" cy="4" r="4" fill="#FFC600" fill-opacity="0.4"/>
<circle cx="36" cy="24" r="4" fill="#FFC600" fill-opacity="0.4"/>
<circle cx="36" cy="44" r="4" fill="#FFC600" fill-opacity="0.4"/>
<circle cx="36" cy="64" r="4" fill="#FFC600" fill-opacity="0.4"/>
<circle cx="36" cy="84" r="4" fill="#FFC600" fill-opacity="0.4"/>
<circle cx="36" cy="104" r="4" fill="#FFC600" fill-opacity="0.4"/>
<circle cx="36" cy="124" r="4" fill="#FFC600" fill-opacity="0.4"/>
<circle cx="36" cy="144" r="4" fill="#FFC600" fill-opacity="0.4"/>
<circle cx="36" cy="164" r="4" fill="#FFC600" fill-opacity="0.4"/>
<circle cx="36" cy="184" r="4" fill="#FFC600" fill-opacity="0.4"/>
<circle cx="36" cy="204" r="4" fill="#FFC600" fill-opacity="0.4"/>
<circle cx="36" cy="224" r="4" fill="#FFC600" fill-opacity="0.4"/>
<circle cx="36" cy="244" r="4" fill="#FFC600" fill-opacity="0.4"/>
<circle cx="36" cy="264" r="4" fill="#FFC600" fill-opacity="0.4"/>
<circle cx="36" cy="284" r="4" fill="#FFC600" fill-opacity="0.4"/>
<circle cx="36" cy="304" r="4" fill="#FFC600" fill-opacity="0.4"/>
<circle cx="36" cy="324" r="4" fill="#FFC600" fill-opacity="0.4"/>
<circle cx="36" cy="344" r="4" fill="#FFC600" fill-opacity="0.4"/>
<circle cx="36" cy="364" r="4" fill="#FFC600" fill-opacity="0.4"/>
<circle cx="36" cy="384" r="4" fill="#FFC600" fill-opacity="0.4"/>
<circle cx="52" cy="4" r="4" fill="#FFC600" fill-opacity="0.4"/>
<circle cx="52" cy="24" r="4" fill="#FFC600" fill-opacity="0.4"/>
<circle cx="52" cy="44" r="4" fill="#FFC600" fill-opacity="0.4"/>
<circle cx="52" cy="64" r="4" fill="#FFC600" fill-opacity="0.4"/>
<circle cx="52" cy="84" r="4" fill="#FFC600" fill-opacity="0.4"/>
<circle cx="52" cy="104" r="4" fill="#FFC600" fill-opacity="0.4"/>
<circle cx="52" cy="124" r="4" fill="#FFC600" fill-opacity="0.4"/>
<circle cx="52" cy="144" r="4" fill="#FFC600" fill-opacity="0.4"/>
<circle cx="52" cy="164" r="4" fill="#FFC600" fill-opacity="0.4"/>
<circle cx="52" cy="184" r="4" fill="#FFC600" fill-opacity="0.4"/>
<circle cx="52" cy="204" r="4" fill="#FFC600" fill-opacity="0.4"/>
<circle cx="52" cy="224" r="4" fill="#FFC600" fill-opacity="0.4"/>
<circle cx="52" cy="244" r="4" fill="#FFC600" fill-opacity="0.4"/>
<circle cx="52" cy="264" r="4" fill="#FFC600" fill-opacity="0.4"/>
<circle cx="52" cy="284" r="4" fill="#FFC600" fill-opacity="0.4"/>
<circle cx="52" cy="304" r="4" fill="#FFC600" fill-opacity="0.4"/>
<circle cx="52" cy="324" r="4" fill="#FFC600" fill-opacity="0.4"/>
<circle cx="52" cy="344" r="4" fill="#FFC600" fill-opacity="0.4"/>
<circle cx="52" cy="364" r="4" fill="#FFC600" fill-opacity="0.4"/>
<circle cx="52" cy="384" r="4" fill="#FFC600" fill-opacity="0.4"/>
<circle cx="68" cy="4" r="4" fill="#FFC600" fill-opacity="0.4"/>
<circle cx="68" cy="24" r="4" fill="#FFC600" fill-opacity="0.4"/>
<circle cx="68" cy="44" r="4" fill="#FFC600" fill-opacity="0.4"/>
<circle cx="68" cy="64" r="4" fill="#FFC600" fill-opacity="0.4"/>
<circle cx="68" cy="84" r="4" fill="#FFC600" fill-opacity="0.4"/>
<circle cx="68" cy="104" r="4" fill="#FFC600" fill-opacity="0.4"/>
<circle cx="68" cy="124" r="4" fill="#FFC600" fill-opacity="0.4"/>
<circle cx="68" cy="144" r="4" fill="#FFC600" fill-opacity="0.4"/>
<circle cx="68" cy="164" r="4" fill="#FFC600" fill-opacity="0.4"/>
<circle cx="68" cy="184" r="4" fill="#FFC600" fill-opacity="0.4"/>
<circle cx="68" cy="204" r="4" fill="#FFC600" fill-opacity="0.4"/>
<circle cx="68" cy="224" r="4" fill="#FFC600" fill-opacity="0.4"/>
<circle cx="68" cy="244" r="4" fill="#FFC600" fill-opacity="0.4"/>
<circle cx="68" cy="264" r="4" fill="#FFC600" fill-opacity="0.4"/>
<circle cx="68" cy="284" r="4" fill="#FFC600" fill-opacity="0.4"/>
<circle cx="68" cy="304" r="4" fill="#FFC600" fill-opacity="0.4"/>
<circle cx="68" cy="324" r="4" fill="#FFC600" fill-opacity="0.4"/>
<circle cx="68" cy="344" r="4" fill="#FFC600" fill-opacity="0.4"/>
<circle cx="68" cy="364" r="4" fill="#FFC600" fill-opacity="0.4"/>
<circle cx="68" cy="384" r="4" fill="#FFC600" fill-opacity="0.4"/>
<circle cx="68" cy="404" r="4" fill="#FFC600" fill-opacity="0.4"/>
<circle cx="84" cy="4" r="4" fill="#FFC600" fill-opacity="0.4"/>
<circle cx="84" cy="24" r="4" fill="#FFC600" fill-opacity="0.4"/>
<circle cx="84" cy="44" r="4" fill="#FFC600" fill-opacity="0.4"/>
<circle cx="84" cy="64" r="4" fill="#FFC600" fill-opacity="0.4"/>
<circle cx="84" cy="84" r="4" fill="#FFC600" fill-opacity="0.4"/>
<circle cx="84" cy="104" r="4" fill="#FFC600" fill-opacity="0.4"/>
<circle cx="84" cy="124" r="4" fill="#FFC600" fill-opacity="0.4"/>
<circle cx="84" cy="144" r="4" fill="#FFC600" fill-opacity="0.4"/>
<circle cx="84" cy="164" r="4" fill="#FFC600" fill-opacity="0.4"/>
<circle cx="84" cy="184" r="4" fill="#FFC600" fill-opacity="0.4"/>
<circle cx="84" cy="204" r="4" fill="#FFC600" fill-opacity="0.4"/>
<circle cx="84" cy="224" r="4" fill="#FFC600" fill-opacity="0.4"/>
<circle cx="84" cy="244" r="4" fill="#FFC600" fill-opacity="0.4"/>
<circle cx="84" cy="264" r="4" fill="#FFC600" fill-opacity="0.4"/>
<circle cx="84" cy="284" r="4" fill="#FFC600" fill-opacity="0.4"/>
<circle cx="84" cy="304" r="4" fill="#FFC600" fill-opacity="0.4"/>
<circle cx="84" cy="324" r="4" fill="#FFC600" fill-opacity="0.4"/>
<circle cx="84" cy="344" r="4" fill="#FFC600" fill-opacity="0.4"/>
<circle cx="84" cy="364" r="4" fill="#FFC600" fill-opacity="0.4"/>
<circle cx="84" cy="384" r="4" fill="#FFC600" fill-opacity="0.4"/>
<circle cx="84" cy="404" r="4" fill="#FFC600" fill-opacity="0.4"/>
<circle cx="100" cy="4" r="4" fill="#FFC600" fill-opacity="0.4"/>
<circle cx="100" cy="24" r="4" fill="#FFC600" fill-opacity="0.4"/>
<circle cx="100" cy="44" r="4" fill="#FFC600" fill-opacity="0.4"/>
<circle cx="100" cy="64" r="4" fill="#FFC600" fill-opacity="0.4"/>
<circle cx="100" cy="84" r="4" fill="#FFC600" fill-opacity="0.4"/>
<circle cx="100" cy="104" r="4" fill="#FFC600" fill-opacity="0.4"/>
<circle cx="100" cy="124" r="4" fill="#FFC600" fill-opacity="0.4"/>
<circle cx="100" cy="144" r="4" fill="#FFC600" fill-opacity="0.4"/>
<circle cx="100" cy="164" r="4" fill="#FFC600" fill-opacity="0.4"/>
<circle cx="100" cy="184" r="4" fill="#FFC600" fill-opacity="0.4"/>
<circle cx="100" cy="204" r="4" fill="#FFC600" fill-opacity="0.4"/>
<circle cx="100" cy="224" r="4" fill="#FFC600" fill-opacity="0.4"/>
<circle cx="100" cy="244" r="4" fill="#FFC600" fill-opacity="0.4"/>
<circle cx="100" cy="264" r="4" fill="#FFC600" fill-opacity="0.4"/>
<circle cx="100" cy="284" r="4" fill="#FFC600" fill-opacity="0.4"/>
<circle cx="100" cy="304" r="4" fill="#FFC600" fill-opacity="0.4"/>
<circle cx="100" cy="324" r="4" fill="#FFC600" fill-opacity="0.4"/>
<circle cx="100" cy="344" r="4" fill="#FFC600" fill-opacity="0.4"/>
<circle cx="100" cy="364" r="4" fill="#FFC600" fill-opacity="0.4"/>
<circle cx="100" cy="384" r="4" fill="#FFC600" fill-opacity="0.4"/>
<circle cx="100" cy="404" r="4" fill="#FFC600" fill-opacity="0.4"/>
<circle cx="116" cy="4" r="4" fill="#FFC600" fill-opacity="0.4"/>
<circle cx="116" cy="24" r="4" fill="#FFC600" fill-opacity="0.4"/>
<circle cx="116" cy="44" r="4" fill="#FFC600" fill-opacity="0.4"/>
<circle cx="116" cy="64" r="4" fill="#FFC600" fill-opacity="0.4"/>
<circle cx="116" cy="84" r="4" fill="#FFC600" fill-opacity="0.4"/>
<circle cx="116" cy="104" r="4" fill="#FFC600" fill-opacity="0.4"/>
<circle cx="116" cy="124" r="4" fill="#FFC600" fill-opacity="0.4"/>
<circle cx="116" cy="144" r="4" fill="#FFC600" fill-opacity="0.4"/>
<circle cx="116" cy="164" r="4" fill="#FFC600" fill-opacity="0.4"/>
<circle cx="116" cy="184" r="4" fill="#FFC600" fill-opacity="0.4"/>
<circle cx="116" cy="204" r="4" fill="#FFC600" fill-opacity="0.4"/>
<circle cx="116" cy="224" r="4" fill="#FFC600" fill-opacity="0.4"/>
<circle cx="116" cy="244" r="4" fill="#FFC600" fill-opacity="0.4"/>
<circle cx="116" cy="264" r="4" fill="#FFC600" fill-opacity="0.4"/>
<circle cx="116" cy="284" r="4" fill="#FFC600" fill-opacity="0.4"/>
<circle cx="116" cy="304" r="4" fill="#FFC600" fill-opacity="0.4"/>
<circle cx="116" cy="324" r="4" fill="#FFC600" fill-opacity="0.4"/>
<circle cx="116" cy="344" r="4" fill="#FFC600" fill-opacity="0.4"/>
<circle cx="116" cy="364" r="4" fill="#FFC600" fill-opacity="0.4"/>
<circle cx="116" cy="384" r="4" fill="#FFC600" fill-opacity="0.4"/>
<circle cx="116" cy="404" r="4" fill="#FFC600" fill-opacity="0.4"/>
<circle cx="132" cy="4" r="4" fill="#FFC600" fill-opacity="0.4"/>
<circle cx="132" cy="24" r="4" fill="#FFC600" fill-opacity="0.4"/>
<circle cx="132" cy="44" r="4" fill="#FFC600" fill-opacity="0.4"/>
<circle cx="132" cy="64" r="4" fill="#FFC600" fill-opacity="0.4"/>
<circle cx="132" cy="84" r="4" fill="#FFC600" fill-opacity="0.4"/>
<circle cx="132" cy="104" r="4" fill="#FFC600" fill-opacity="0.4"/>
<circle cx="132" cy="124" r="4" fill="#FFC600" fill-opacity="0.4"/>
<circle cx="132" cy="144" r="4" fill="#FFC600" fill-opacity="0.4"/>
<circle cx="132" cy="164" r="4" fill="#FFC600" fill-opacity="0.4"/>
<circle cx="132" cy="184" r="4" fill="#FFC600" fill-opacity="0.4"/>
<circle cx="132" cy="204" r="4" fill="#FFC600" fill-opacity="0.4"/>
<circle cx="132" cy="224" r="4" fill="#FFC600" fill-opacity="0.4"/>
<circle cx="132" cy="244" r="4" fill="#FFC600" fill-opacity="0.4"/>
<circle cx="132" cy="264" r="4" fill="#FFC600" fill-opacity="0.4"/>
<circle cx="132" cy="284" r="4" fill="#FFC600" fill-opacity="0.4"/>
<circle cx="132" cy="304" r="4" fill="#FFC600" fill-opacity="0.4"/>
<circle cx="132" cy="324" r="4" fill="#FFC600" fill-opacity="0.4"/>
<circle cx="132" cy="344" r="4" fill="#FFC600" fill-opacity="0.4"/>
<circle cx="132" cy="364" r="4" fill="#FFC600" fill-opacity="0.4"/>
<circle cx="132" cy="384" r="4" fill="#FFC600" fill-opacity="0.4"/>
<circle cx="132" cy="404" r="4" fill="#FFC600" fill-opacity="0.4"/>
<circle cx="148" cy="4" r="4" fill="#FFC600" fill-opacity="0.4"/>
<circle cx="148" cy="24" r="4" fill="#FFC600" fill-opacity="0.4"/>
<circle cx="148" cy="44" r="4" fill="#FFC600" fill-opacity="0.4"/>
<circle cx="148" cy="64" r="4" fill="#FFC600" fill-opacity="0.4"/>
<circle cx="148" cy="84" r="4" fill="#FFC600" fill-opacity="0.4"/>
<circle cx="148" cy="104" r="4" fill="#FFC600" fill-opacity="0.4"/>
<circle cx="148" cy="124" r="4" fill="#FFC600" fill-opacity="0.4"/>
<circle cx="148" cy="144" r="4" fill="#FFC600" fill-opacity="0.4"/>
<circle cx="148" cy="164" r="4" fill="#FFC600" fill-opacity="0.4"/>
<circle cx="148" cy="184" r="4" fill="#FFC600" fill-opacity="0.4"/>
<circle cx="148" cy="204" r="4" fill="#FFC600" fill-opacity="0.4"/>
<circle cx="148" cy="224" r="4" fill="#FFC600" fill-opacity="0.4"/>
<circle cx="148" cy="244" r="4" fill="#FFC600" fill-opacity="0.4"/>
<circle cx="148" cy="264" r="4" fill="#FFC600" fill-opacity="0.4"/>
<circle cx="148" cy="284" r="4" fill="#FFC600" fill-opacity="0.4"/>
<circle cx="148" cy="304" r="4" fill="#FFC600" fill-opacity="0.4"/>
<circle cx="148" cy="324" r="4" fill="#FFC600" fill-opacity="0.4"/>
<circle cx="148" cy="344" r="4" fill="#FFC600" fill-opacity="0.4"/>
<circle cx="148" cy="364" r="4" fill="#FFC600" fill-opacity="0.4"/>
<circle cx="148" cy="384" r="4" fill="#FFC600" fill-opacity="0.4"/>
<circle cx="148" cy="404" r="4" fill="#FFC600" fill-opacity="0.4"/>
</svg>
